<?xml version="1.0" encoding="UTF-8" standalone="no"?>
<!DOCTYPE svg PUBLIC "-//W3C//DTD SVG 1.1//EN"
 "http://www.w3.org/Graphics/SVG/1.1/DTD/svg11.dtd">
<!-- Generated by graphviz version 12.2.1 (20241206.2353)
 -->
<!-- Title: G Pages: 1 -->
<svg width="276pt" height="98pt"
 viewBox="0.00 0.00 275.50 98.00" xmlns="http://www.w3.org/2000/svg" xmlns:xlink="http://www.w3.org/1999/xlink">
<g id="graph0" class="graph" transform="scale(1 1) rotate(0) translate(4 94)">
<title>G</title>
<polygon fill="white" stroke="none" points="-4,4 -4,-94 271.5,-94 271.5,4 -4,4"/>
<!-- local_file.foo -->
<g id="node1" class="node">
<title>local_file.foo</title>
<polygon fill="none" stroke="black" points="267.5,-36 174.25,-36 174.25,0 267.5,0 267.5,-36"/>
<text text-anchor="middle" x="220.88" y="-13.32" font-family="sans-serif" font-size="14.00">local_file.foo</text>
</g>
<!-- local_file.pet -->
<g id="node2" class="node">
<title>local_file.pet</title>
<polygon fill="none" stroke="black" points="267.5,-90 174.25,-90 174.25,-54 267.5,-54 267.5,-90"/>
<text text-anchor="middle" x="220.88" y="-67.33" font-family="sans-serif" font-size="14.00">local_file.pet</text>
</g>
<!-- random_pet.my&#45;pet -->
<g id="node3" class="node">
<title>random_pet.my&#45;pet</title>
<polygon fill="none" stroke="black" points="138.25,-90 0,-90 0,-54 138.25,-54 138.25,-90"/>
<text text-anchor="middle" x="69.12" y="-67.33" font-family="sans-serif" font-size="14.00">random_pet.my&#45;pet</text>
</g>
<!-- local_file.pet&#45;&gt;random_pet.my&#45;pet -->
<g id="edge1" class="edge">
<title>local_file.pet&#45;&gt;random_pet.my&#45;pet</title>
<path fill="none" stroke="black" d="M174.13,-72C166.44,-72 158.27,-72 150.02,-72"/>
<polygon fill="black" stroke="black" points="150.26,-68.5 140.26,-72 150.26,-75.5 150.26,-68.5"/>
</g>
</g>
</svg>
